<svg xmlns = "http://www.w3.org/2000/svg" width = "1000" height = "1000">
<g>
<polygon points = ""
fill = "none" stroke = "black"/>
</g>
<g>
<polygon points = "408.969, 201.236 345.779, 224.494 345.065, 244.558 386.662, 241.764 "
fill = "none" stroke = "black"/>
</g>
<g>
<polygon points = "970.758, 540.204 834.476, 329.628 755.212, 342.814 639.685, 615.154 651.176, 666.507 735.017, 691.081 "
fill = "none" stroke = "black"/>
</g>
<g>
<polygon points = ""
fill = "none" stroke = "black"/>
</g>
<g>
<polygon points = ""
fill = "none" stroke = "black"/>
</g>
<g>
<polygon points = "465.807, 411.725 346.986, 421.166 519.800, 589.957 527.826, 587.293 "
fill = "none" stroke = "black"/>
</g>
<g>
<polygon points = "584.010, 927.373 546.998, 933.746 525.412, 1000.000 567.222, 1000.000 "
fill = "none" stroke = "black"/>
</g>
<g>
<polygon points = ""
fill = "none" stroke = "black"/>
</g>
<g>
<polygon points = "661.176, 822.401 791.565, 857.296 810.036, 840.003 737.273, 746.822 728.932, 740.373 668.796, 752.282 "
fill = "none" stroke = "black"/>
</g>
<g>
<polygon points = "198.934, 425.568 238.179, 649.045 343.719, 777.239 450.253, 745.514 450.690, 745.165 517.939, 675.455 519.800, 589.957 346.986, 421.166 265.269, 384.764 205.619, 409.445 "
fill = "none" stroke = "black"/>
</g>
<g>
<polygon points = ""
fill = "none" stroke = "black"/>
</g>
<g>
<polygon points = ""
fill = "none" stroke = "black"/>
</g>
<g>
<polygon points = ""
fill = "none" stroke = "black"/>
</g>
<g>
<polygon points = "134.300, 95.718 200.247, 101.656 206.028, 0.000 129.188, 0.000 "
fill = "none" stroke = "black"/>
</g>
<g>
<polygon points = ""
fill = "none" stroke = "black"/>
</g>
<g>
<polygon points = ""
fill = "none" stroke = "black"/>
</g>
<g>
<polygon points = ""
fill = "none" stroke = "black"/>
</g>
<g>
<polygon points = ""
fill = "none" stroke = "black"/>
</g>
<g>
<polygon points = "450.551, 745.779 450.690, 745.165 450.253, 745.514 "
fill = "none" stroke = "black"/>
</g>
<g>
<polygon points = ""
fill = "none" stroke = "black"/>
</g>
<g>
<polygon points = "339.618, 220.858 128.984, 354.500 205.619, 409.445 265.269, 384.764 345.065, 244.558 345.779, 224.494 "
fill = "none" stroke = "black"/>
</g>
<g>
<polygon points = "634.828, 681.584 668.796, 752.282 728.932, 740.373 732.286, 732.376 735.017, 691.081 651.176, 666.507 "
fill = "none" stroke = "black"/>
</g>
<g>
<polygon points = "200.247, 101.656 134.300, 95.718 0.000, 178.738 0.000, 289.818 128.984, 354.500 339.618, 220.858 "
fill = "none" stroke = "black"/>
</g>
<g>
<polygon points = ""
fill = "none" stroke = "black"/>
</g>
<g>
<polygon points = ""
fill = "none" stroke = "black"/>
</g>
<g>
<polygon points = "200.247, 101.656 339.618, 220.858 345.779, 224.494 408.969, 201.236 475.153, 158.898 551.047, 0.000 206.028, 0.000 "
fill = "none" stroke = "black"/>
</g>
<g>
<polygon points = ""
fill = "none" stroke = "black"/>
</g>
<g>
<polygon points = ""
fill = "none" stroke = "black"/>
</g>
<g>
<polygon points = ""
fill = "none" stroke = "black"/>
</g>
<g>
<polygon points = ""
fill = "none" stroke = "black"/>
</g>
<g>
<polygon points = "943.234, 158.429 879.583, 190.687 844.017, 321.052 1000.000, 363.363 1000.000, 149.378 "
fill = "none" stroke = "black"/>
</g>
<g>
<polygon points = ""
fill = "none" stroke = "black"/>
</g>
<g>
<polygon points = ""
fill = "none" stroke = "black"/>
</g>
<g>
<polygon points = "265.269, 384.764 346.986, 421.166 465.807, 411.725 473.218, 356.499 386.662, 241.764 345.065, 244.558 "
fill = "none" stroke = "black"/>
</g>
<g>
<polygon points = "810.036, 840.003 791.565, 857.296 782.534, 1000.000 1000.000, 1000.000 1000.000, 857.463 "
fill = "none" stroke = "black"/>
</g>
<g>
<polygon points = ""
fill = "none" stroke = "black"/>
</g>
<g>
<polygon points = ""
fill = "none" stroke = "black"/>
</g>
<g>
<polygon points = ""
fill = "none" stroke = "black"/>
</g>
<g>
<polygon points = ""
fill = "none" stroke = "black"/>
</g>
<g>
<polygon points = ""
fill = "none" stroke = "black"/>
</g>
<g>
<polygon points = ""
fill = "none" stroke = "black"/>
</g>
<g>
<polygon points = ""
fill = "none" stroke = "black"/>
</g>
<g>
<polygon points = ""
fill = "none" stroke = "black"/>
</g>
<g>
<polygon points = ""
fill = "none" stroke = "black"/>
</g>
<g>
<polygon points = ""
fill = "none" stroke = "black"/>
</g>
<g>
<polygon points = "546.998, 933.746 450.551, 745.779 450.253, 745.514 343.719, 777.239 308.295, 832.242 308.271, 1000.000 525.412, 1000.000 "
fill = "none" stroke = "black"/>
</g>
<g>
<polygon points = ""
fill = "none" stroke = "black"/>
</g>
<g>
<polygon points = ""
fill = "none" stroke = "black"/>
</g>
<g>
<polygon points = "844.017, 321.052 834.476, 329.628 970.758, 540.204 1000.000, 540.141 1000.000, 363.363 "
fill = "none" stroke = "black"/>
</g>
<g>
<polygon points = ""
fill = "none" stroke = "black"/>
</g>
<g>
<polygon points = "517.939, 675.455 566.175, 657.452 548.197, 607.180 527.826, 587.293 519.800, 589.957 "
fill = "none" stroke = "black"/>
</g>
<g>
<polygon points = "791.565, 857.296 661.176, 822.401 584.010, 927.373 567.222, 1000.000 782.534, 1000.000 "
fill = "none" stroke = "black"/>
</g>
<g>
<polygon points = "198.934, 425.568 205.619, 409.445 128.984, 354.500 0.000, 289.818 0.000, 608.441 "
fill = "none" stroke = "black"/>
</g>
<g>
<polygon points = ""
fill = "none" stroke = "black"/>
</g>
<g>
<polygon points = "676.611, 28.251 797.642, 54.363 783.224, 0.000 662.220, 0.000 "
fill = "none" stroke = "black"/>
</g>
<g>
<polygon points = ""
fill = "none" stroke = "black"/>
</g>
<g>
<polygon points = ""
fill = "none" stroke = "black"/>
</g>
<g>
<polygon points = ""
fill = "none" stroke = "black"/>
</g>
<g>
<polygon points = ""
fill = "none" stroke = "black"/>
</g>
<g>
<polygon points = "475.153, 158.898 556.960, 248.157 621.453, 253.348 676.611, 28.251 662.220, 0.000 551.047, 0.000 "
fill = "none" stroke = "black"/>
</g>
<g>
<polygon points = "566.175, 657.452 517.939, 675.455 450.690, 745.165 450.551, 745.779 546.998, 933.746 584.010, 927.373 661.176, 822.401 668.796, 752.282 634.828, 681.584 "
fill = "none" stroke = "black"/>
</g>
<g>
<polygon points = ""
fill = "none" stroke = "black"/>
</g>
<g>
<polygon points = ""
fill = "none" stroke = "black"/>
</g>
<g>
<polygon points = ""
fill = "none" stroke = "black"/>
</g>
<g>
<polygon points = "621.453, 253.348 556.960, 248.157 473.218, 356.499 465.807, 411.725 527.826, 587.293 548.197, 607.180 639.685, 615.154 755.212, 342.814 "
fill = "none" stroke = "black"/>
</g>
<g>
<polygon points = "548.197, 607.180 566.175, 657.452 634.828, 681.584 651.176, 666.507 639.685, 615.154 "
fill = "none" stroke = "black"/>
</g>
<g>
<polygon points = "308.295, 832.242 0.000, 817.831 0.000, 880.194 78.046, 1000.000 308.271, 1000.000 "
fill = "none" stroke = "black"/>
</g>
<g>
<polygon points = ""
fill = "none" stroke = "black"/>
</g>
<g>
<polygon points = ""
fill = "none" stroke = "black"/>
</g>
<g>
<polygon points = "0.000, 178.738 134.300, 95.718 129.188, 0.000 0.000, 0.000 "
fill = "none" stroke = "black"/>
</g>
<g>
<polygon points = ""
fill = "none" stroke = "black"/>
</g>
<g>
<polygon points = ""
fill = "none" stroke = "black"/>
</g>
<g>
<polygon points = ""
fill = "none" stroke = "black"/>
</g>
<g>
<polygon points = ""
fill = "none" stroke = "black"/>
</g>
<g>
<polygon points = ""
fill = "none" stroke = "black"/>
</g>
<g>
<polygon points = ""
fill = "none" stroke = "black"/>
</g>
<g>
<polygon points = ""
fill = "none" stroke = "black"/>
</g>
<g>
<polygon points = "732.286, 732.376 728.932, 740.373 737.273, 746.822 "
fill = "none" stroke = "black"/>
</g>
<g>
<polygon points = ""
fill = "none" stroke = "black"/>
</g>
<g>
<polygon points = "797.642, 54.363 866.061, 142.136 943.234, 158.429 1000.000, 149.378 1000.000, 0.000 783.224, 0.000 "
fill = "none" stroke = "black"/>
</g>
<g>
<polygon points = ""
fill = "none" stroke = "black"/>
</g>
<g>
<polygon points = "556.960, 248.157 475.153, 158.898 408.969, 201.236 386.662, 241.764 473.218, 356.499 "
fill = "none" stroke = "black"/>
</g>
<g>
<polygon points = ""
fill = "none" stroke = "black"/>
</g>
<g>
<polygon points = ""
fill = "none" stroke = "black"/>
</g>
<g>
<polygon points = ""
fill = "none" stroke = "black"/>
</g>
<g>
<polygon points = ""
fill = "none" stroke = "black"/>
</g>
<g>
<polygon points = "308.295, 832.242 343.719, 777.239 238.179, 649.045 0.000, 672.325 0.000, 817.831 "
fill = "none" stroke = "black"/>
</g>
<g>
<polygon points = "866.061, 142.136 879.583, 190.687 943.234, 158.429 "
fill = "none" stroke = "black"/>
</g>
<g>
<polygon points = ""
fill = "none" stroke = "black"/>
</g>
<g>
<polygon points = ""
fill = "none" stroke = "black"/>
</g>
<g>
<polygon points = ""
fill = "none" stroke = "black"/>
</g>
<g>
<polygon points = "0.000, 880.194 0.000, 1000.000 78.046, 1000.000 "
fill = "none" stroke = "black"/>
</g>
<g>
<polygon points = "970.758, 540.204 735.017, 691.081 732.286, 732.376 737.273, 746.822 810.036, 840.003 1000.000, 857.463 1000.000, 540.141 "
fill = "none" stroke = "black"/>
</g>
<g>
<polygon points = ""
fill = "none" stroke = "black"/>
</g>
<g>
<polygon points = ""
fill = "none" stroke = "black"/>
</g>
<g>
<polygon points = "238.179, 649.045 198.934, 425.568 0.000, 608.441 0.000, 672.325 "
fill = "none" stroke = "black"/>
</g>
<g>
<polygon points = ""
fill = "none" stroke = "black"/>
</g>
<g>
<polygon points = ""
fill = "none" stroke = "black"/>
</g>
<g>
<polygon points = ""
fill = "none" stroke = "black"/>
</g>
<g>
<polygon points = "866.061, 142.136 797.642, 54.363 676.611, 28.251 621.453, 253.348 755.212, 342.814 834.476, 329.628 844.017, 321.052 879.583, 190.687 "
fill = "none" stroke = "black"/>
</g>
<g>
<circle cx = "85.032" cy = "108.389" r = "3" />
<circle cx = "398.008" cy = "256.488" r = "3" />
<circle cx = "809.567" cy = "488.287" r = "3" />
<circle cx = "966.611" cy = "573.949" r = "3" />
<circle cx = "961.533" cy = "142.013" r = "3" />
<circle cx = "414.645" cy = "485.107" r = "3" />
<circle cx = "544.273" cy = "906.370" r = "3" />
<circle cx = "844.927" cy = "227.154" r = "3" />
<circle cx = "780.367" cy = "818.657" r = "3" />
<circle cx = "314.131" cy = "588.015" r = "3" />
<circle cx = "163.922" cy = "665.152" r = "3" />
<circle cx = "174.524" cy = "962.700" r = "3" />
<circle cx = "674.113" cy = "933.297" r = "3" />
<circle cx = "165.399" cy = "9.196" r = "3" />
<circle cx = "672.653" cy = "412.294" r = "3" />
<circle cx = "593.045" cy = "728.280" r = "3" />
<circle cx = "95.930" cy = "367.444" r = "3" />
<circle cx = "948.862" cy = "957.396" r = "3" />
<circle cx = "465.497" cy = "777.460" r = "3" />
<circle cx = "604.569" cy = "301.998" r = "3" />
<circle cx = "173.652" cy = "248.505" r = "3" />
<circle cx = "753.096" cy = "680.951" r = "3" />
<circle cx = "147.554" cy = "207.372" r = "3" />
<circle cx = "794.381" cy = "990.592" r = "3" />
<circle cx = "295.594" cy = "440.081" r = "3" />
<circle cx = "310.016" cy = "17.421" r = "3" />
<circle cx = "448.564" cy = "696.486" r = "3" />
<circle cx = "801.919" cy = "16.187" r = "3" />
<circle cx = "239.803" cy = "895.301" r = "3" />
<circle cx = "521.407" cy = "670.021" r = "3" />
<circle cx = "977.858" cy = "264.913" r = "3" />
<circle cx = "49.468" cy = "427.462" r = "3" />
<circle cx = "811.628" cy = "20.814" r = "3" />
<circle cx = "406.369" cy = "380.954" r = "3" />
<circle cx = "915.988" cy = "963.508" r = "3" />
<circle cx = "903.643" cy = "824.008" r = "3" />
<circle cx = "328.182" cy = "605.431" r = "3" />
<circle cx = "183.268" cy = "742.500" r = "3" />
<circle cx = "196.504" cy = "858.707" r = "3" />
<circle cx = "801.833" cy = "844.104" r = "3" />
<circle cx = "255.728" cy = "6.022" r = "3" />
<circle cx = "847.351" cy = "930.619" r = "3" />
<circle cx = "8.147" cy = "560.347" r = "3" />
<circle cx = "135.657" cy = "750.769" r = "3" />
<circle cx = "698.389" cy = "793.143" r = "3" />
<circle cx = "394.393" cy = "857.538" r = "3" />
<circle cx = "473.120" cy = "638.280" r = "3" />
<circle cx = "972.109" cy = "757.403" r = "3" />
<circle cx = "940.200" cy = "403.743" r = "3" />
<circle cx = "331.532" cy = "695.957" r = "3" />
<circle cx = "449.785" cy = "590.968" r = "3" />
<circle cx = "744.505" cy = "952.655" r = "3" />
<circle cx = "18.198" cy = "465.325" r = "3" />
<circle cx = "378.044" cy = "507.689" r = "3" />
<circle cx = "784.188" cy = "106.318" r = "3" />
<circle cx = "321.514" cy = "854.763" r = "3" />
<circle cx = "211.923" cy = "784.497" r = "3" />
<circle cx = "752.816" cy = "209.765" r = "3" />
<circle cx = "380.455" cy = "626.450" r = "3" />
<circle cx = "644.799" cy = "177.322" r = "3" />
<circle cx = "524.381" cy = "790.840" r = "3" />
<circle cx = "639.567" cy = "261.054" r = "3" />
<circle cx = "399.406" cy = "992.914" r = "3" />
<circle cx = "863.901" cy = "355.799" r = "3" />
<circle cx = "626.034" cy = "410.433" r = "3" />
<circle cx = "615.464" cy = "531.720" r = "3" />
<circle cx = "158.794" cy = "857.504" r = "3" />
<circle cx = "96.781" cy = "545.785" r = "3" />
<circle cx = "514.359" cy = "866.350" r = "3" />
<circle cx = "29.533" cy = "16.452" r = "3" />
<circle cx = "2.016" cy = "620.560" r = "3" />
<circle cx = "200.970" cy = "643.827" r = "3" />
<circle cx = "625.217" cy = "643.212" r = "3" />
<circle cx = "660.441" cy = "147.329" r = "3" />
<circle cx = "179.815" cy = "366.339" r = "3" />
<circle cx = "431.296" cy = "246.002" r = "3" />
<circle cx = "82.045" cy = "391.981" r = "3" />
<circle cx = "854.080" cy = "723.310" r = "3" />
<circle cx = "71.351" cy = "857.653" r = "3" />
<circle cx = "945.738" cy = "63.472" r = "3" />
<circle cx = "114.143" cy = "267.747" r = "3" />
<circle cx = "498.233" cy = "311.652" r = "3" />
<circle cx = "907.376" cy = "116.446" r = "3" />
<circle cx = "866.969" cy = "579.667" r = "3" />
<circle cx = "771.371" cy = "783.122" r = "3" />
<circle cx = "898.071" cy = "406.795" r = "3" />
<circle cx = "165.678" cy = "710.234" r = "3" />
<circle cx = "925.162" cy = "160.933" r = "3" />
<circle cx = "183.894" cy = "342.870" r = "3" />
<circle cx = "389.359" cy = "299.139" r = "3" />
<circle cx = "860.483" cy = "324.224" r = "3" />
<circle cx = "10.597" cy = "954.045" r = "3" />
<circle cx = "940.818" cy = "693.364" r = "3" />
<circle cx = "108.658" cy = "66.616" r = "3" />
<circle cx = "148.801" cy = "756.672" r = "3" />
<circle cx = "156.439" cy = "615.708" r = "3" />
<circle cx = "826.041" cy = "680.884" r = "3" />
<circle cx = "472.118" cy = "156.506" r = "3" />
<circle cx = "665.252" cy = "565.593" r = "3" />
<circle cx = "762.639" cy = "206.198" r = "3" />
</g>
</svg>
