<svg xmlns = "http://www.w3.org/2000/svg" width = "1000" height = "1000">
<g>
<polygon points = "85.864, 38.609 74.438, 50.633 68.509, 114.553 116.260, 129.899 165.570, 98.753 "
fill = "none" stroke = "black" stroke-width="1"/>
</g>
<g>
<polygon points = "215.704, 673.110 227.080, 630.354 216.041, 582.646 153.998, 586.707 146.145, 590.322 187.269, 674.808 "
fill = "none" stroke = "black" stroke-width="1"/>
</g>
<g>
<polygon points = "825.005, 464.070 802.367, 441.122 766.310, 442.494 760.443, 445.055 744.960, 485.221 795.108, 530.505 797.782, 530.710 835.077, 480.100 "
fill = "none" stroke = "black" stroke-width="1"/>
</g>
<g>
<polygon points = "808.725, 588.197 884.822, 530.362 862.252, 495.488 835.077, 480.100 797.782, 530.710 "
fill = "none" stroke = "black" stroke-width="1"/>
</g>
<g>
<polygon points = "945.389, 49.365 988.783, 112.632 1000.000, 114.718 1000.000, 0.000 936.879, 0.000 "
fill = "none" stroke = "black" stroke-width="1"/>
</g>
<g>
<polygon points = "383.770, 311.250 386.941, 358.255 426.604, 407.604 446.519, 381.308 453.772, 353.636 435.178, 299.486 "
fill = "none" stroke = "black" stroke-width="1"/>
</g>
<g>
<polygon points = "925.223, 178.691 909.464, 185.206 886.786, 233.246 973.321, 299.912 983.713, 298.532 933.250, 181.779 "
fill = "none" stroke = "black" stroke-width="1"/>
</g>
<g>
<polygon points = "299.389, 588.069 306.577, 647.307 314.448, 669.667 385.150, 549.375 347.997, 541.491 "
fill = "none" stroke = "black" stroke-width="1"/>
</g>
<g>
<polygon points = "449.232, 216.187 519.332, 212.571 554.842, 151.782 511.273, 141.573 494.997, 144.144 479.802, 157.211 447.029, 206.322 "
fill = "none" stroke = "black" stroke-width="1"/>
</g>
<g>
<polygon points = "567.590, 931.124 574.496, 889.504 567.769, 886.666 458.600, 968.265 477.558, 1000.000 487.701, 1000.000 "
fill = "none" stroke = "black" stroke-width="1"/>
</g>
<g>
<polygon points = "377.884, 133.891 340.498, 155.911 447.029, 206.322 479.802, 157.211 "
fill = "none" stroke = "black" stroke-width="1"/>
</g>
<g>
<polygon points = "758.709, 784.610 729.199, 790.821 718.231, 845.271 723.250, 850.614 735.796, 860.511 849.408, 779.262 "
fill = "none" stroke = "black" stroke-width="1"/>
</g>
<g>
<polygon points = "868.151, 825.219 874.052, 773.023 849.408, 779.262 735.796, 860.511 739.895, 864.310 847.104, 842.226 "
fill = "none" stroke = "black" stroke-width="1"/>
</g>
<g>
<polygon points = "629.812, 734.088 661.394, 670.991 603.842, 608.827 603.444, 608.758 594.067, 629.650 598.879, 717.314 "
fill = "none" stroke = "black" stroke-width="1"/>
</g>
<g>
<polygon points = "393.944, 69.709 402.963, 70.380 475.485, 8.655 477.890, 0.000 351.138, 0.000 "
fill = "none" stroke = "black" stroke-width="1"/>
</g>
<g>
<polygon points = "172.919, 677.357 84.947, 650.262 83.719, 652.086 69.524, 703.628 78.564, 717.366 166.418, 713.944 "
fill = "none" stroke = "black" stroke-width="1"/>
</g>
<g>
<polygon points = "20.523, 887.916 133.589, 905.019 149.264, 864.605 123.916, 836.684 28.893, 874.320 "
fill = "none" stroke = "black" stroke-width="1"/>
</g>
<g>
<polygon points = "88.960, 634.822 104.134, 604.700 101.132, 515.980 23.900, 566.501 "
fill = "none" stroke = "black" stroke-width="1"/>
</g>
<g>
<polygon points = "641.859, 955.423 706.916, 959.220 745.369, 873.835 739.895, 864.310 735.796, 860.511 723.250, 850.614 "
fill = "none" stroke = "black" stroke-width="1"/>
</g>
<g>
<polygon points = "324.619, 915.061 430.307, 871.845 319.957, 822.347 "
fill = "none" stroke = "black" stroke-width="1"/>
</g>
<g>
<polygon points = "933.250, 181.779 983.713, 298.532 1000.000, 300.087 1000.000, 177.584 "
fill = "none" stroke = "black" stroke-width="1"/>
</g>
<g>
<polygon points = "726.509, 433.880 676.138, 472.959 673.494, 539.192 679.336, 542.701 744.960, 485.221 760.443, 445.055 "
fill = "none" stroke = "black" stroke-width="1"/>
</g>
<g>
<polygon points = "236.421, 417.915 228.003, 433.501 243.569, 480.338 278.311, 496.621 281.206, 496.748 334.225, 431.802 "
fill = "none" stroke = "black" stroke-width="1"/>
</g>
<g>
<polygon points = "288.757, 723.112 261.160, 791.927 295.157, 828.905 319.752, 821.820 327.019, 807.810 336.907, 769.838 293.751, 716.522 "
fill = "none" stroke = "black" stroke-width="1"/>
</g>
<g>
<polygon points = "91.263, 427.732 129.408, 449.317 151.943, 363.640 95.263, 320.584 "
fill = "none" stroke = "black" stroke-width="1"/>
</g>
<g>
<polygon points = "168.383, 98.355 215.777, 99.483 225.876, 86.220 226.034, 75.578 193.391, 0.000 156.285, 0.000 "
fill = "none" stroke = "black" stroke-width="1"/>
</g>
<g>
<polygon points = "68.673, 242.552 71.110, 181.085 0.000, 166.610 0.000, 248.065 "
fill = "none" stroke = "black" stroke-width="1"/>
</g>
<g>
<polygon points = "529.275, 770.775 439.845, 782.394 434.584, 806.464 445.516, 836.753 513.910, 838.399 "
fill = "none" stroke = "black" stroke-width="1"/>
</g>
<g>
<polygon points = "578.228, 427.196 539.399, 445.743 536.044, 454.533 549.726, 487.548 602.145, 510.673 620.503, 443.926 617.771, 433.898 608.011, 416.457 "
fill = "none" stroke = "black" stroke-width="1"/>
</g>
<g>
<polygon points = "724.986, 334.509 673.198, 342.133 690.183, 385.394 726.509, 433.880 760.443, 445.055 766.310, 442.494 "
fill = "none" stroke = "black" stroke-width="1"/>
</g>
<g>
<polygon points = "237.484, 221.126 255.169, 236.515 276.981, 221.046 287.887, 202.358 290.321, 175.987 236.829, 133.538 206.003, 153.096 "
fill = "none" stroke = "black" stroke-width="1"/>
</g>
<g>
<polygon points = "871.169, 358.916 766.306, 308.954 739.389, 310.984 740.665, 318.613 804.156, 393.650 871.760, 362.553 "
fill = "none" stroke = "black" stroke-width="1"/>
</g>
<g>
<polygon points = "422.647, 485.051 387.639, 459.587 321.924, 515.908 347.997, 541.491 385.150, 549.375 389.810, 549.067 "
fill = "none" stroke = "black" stroke-width="1"/>
</g>
<g>
<polygon points = "114.745, 144.798 126.744, 151.438 206.003, 153.096 236.829, 133.538 215.777, 99.483 168.383, 98.355 165.570, 98.753 116.260, 129.899 "
fill = "none" stroke = "black" stroke-width="1"/>
</g>
<g>
<polygon points = "874.339, 233.966 860.217, 261.864 860.593, 264.772 870.804, 293.617 954.806, 320.311 973.321, 299.912 886.786, 233.246 "
fill = "none" stroke = "black" stroke-width="1"/>
</g>
<g>
<polygon points = "23.900, 566.501 101.132, 515.980 101.182, 515.788 0.000, 479.668 0.000, 566.073 "
fill = "none" stroke = "black" stroke-width="1"/>
</g>
<g>
<polygon points = "321.924, 515.908 387.639, 459.587 362.245, 421.299 349.909, 420.001 334.225, 431.802 281.206, 496.748 "
fill = "none" stroke = "black" stroke-width="1"/>
</g>
<g>
<polygon points = "540.740, 661.677 530.486, 694.241 532.327, 709.989 550.524, 737.126 598.879, 717.314 594.067, 629.650 "
fill = "none" stroke = "black" stroke-width="1"/>
</g>
<g>
<polygon points = "871.199, 61.861 945.389, 49.365 936.879, 0.000 836.149, 0.000 "
fill = "none" stroke = "black" stroke-width="1"/>
</g>
<g>
<polygon points = "416.680, 665.312 409.801, 672.002 448.992, 742.753 532.327, 709.989 530.486, 694.241 "
fill = "none" stroke = "black" stroke-width="1"/>
</g>
<g>
<polygon points = "71.110, 181.085 114.745, 144.798 116.260, 129.899 68.509, 114.553 0.000, 143.630 0.000, 166.610 "
fill = "none" stroke = "black" stroke-width="1"/>
</g>
<g>
<polygon points = "960.475, 873.838 967.136, 1000.000 1000.000, 1000.000 1000.000, 851.904 "
fill = "none" stroke = "black" stroke-width="1"/>
</g>
<g>
<polygon points = "317.178, 973.561 313.656, 956.517 275.858, 913.963 233.422, 964.177 230.225, 1000.000 301.008, 1000.000 "
fill = "none" stroke = "black" stroke-width="1"/>
</g>
<g>
<polygon points = "510.461, 528.198 589.791, 576.228 616.364, 529.707 602.145, 510.673 549.726, 487.548 "
fill = "none" stroke = "black" stroke-width="1"/>
</g>
<g>
<polygon points = "377.295, 692.424 361.678, 678.325 314.927, 679.417 294.282, 710.443 293.751, 716.522 336.907, 769.838 364.978, 744.034 "
fill = "none" stroke = "black" stroke-width="1"/>
</g>
<g>
<polygon points = "983.713, 298.532 973.321, 299.912 954.806, 320.311 930.626, 378.774 971.441, 396.382 1000.000, 399.092 1000.000, 300.087 "
fill = "none" stroke = "black" stroke-width="1"/>
</g>
<g>
<polygon points = "960.475, 873.838 931.720, 874.696 910.576, 914.294 940.131, 1000.000 967.136, 1000.000 "
fill = "none" stroke = "black" stroke-width="1"/>
</g>
<g>
<polygon points = "618.603, 973.868 567.590, 931.124 487.701, 1000.000 605.245, 1000.000 "
fill = "none" stroke = "black" stroke-width="1"/>
</g>
<g>
<polygon points = "686.840, 10.698 782.837, 55.635 806.284, 49.754 829.125, 0.000 684.518, 0.000 "
fill = "none" stroke = "black" stroke-width="1"/>
</g>
<g>
<polygon points = "306.577, 647.307 299.389, 588.069 251.984, 567.904 225.492, 576.754 216.041, 582.646 227.080, 630.354 "
fill = "none" stroke = "black" stroke-width="1"/>
</g>
<g>
<polygon points = "577.185, 165.031 581.435, 264.849 670.593, 271.423 673.011, 264.527 580.498, 166.103 "
fill = "none" stroke = "black" stroke-width="1"/>
</g>
<g>
<polygon points = "910.576, 914.294 846.481, 968.490 847.951, 1000.000 940.131, 1000.000 "
fill = "none" stroke = "black" stroke-width="1"/>
</g>
<g>
<polygon points = "817.912, 158.863 827.225, 123.260 806.284, 49.754 782.837, 55.635 750.736, 87.146 757.058, 116.585 "
fill = "none" stroke = "black" stroke-width="1"/>
</g>
<g>
<polygon points = "131.930, 468.689 121.402, 492.675 151.910, 499.104 192.003, 495.358 243.569, 480.338 228.003, 433.501 213.711, 432.684 "
fill = "none" stroke = "black" stroke-width="1"/>
</g>
<g>
<polygon points = "314.927, 679.417 361.678, 678.325 406.476, 566.919 389.810, 549.067 385.150, 549.375 314.448, 669.667 "
fill = "none" stroke = "black" stroke-width="1"/>
</g>
<g>
<polygon points = "456.008, 929.774 523.942, 861.581 513.910, 838.399 445.516, 836.753 434.598, 873.030 "
fill = "none" stroke = "black" stroke-width="1"/>
</g>
<g>
<polygon points = "323.892, 384.282 277.431, 362.204 250.239, 371.470 236.421, 417.915 334.225, 431.802 349.909, 420.001 "
fill = "none" stroke = "black" stroke-width="1"/>
</g>
<g>
<polygon points = "205.724, 931.204 233.422, 964.177 275.858, 913.963 268.416, 873.748 207.958, 861.187 "
fill = "none" stroke = "black" stroke-width="1"/>
</g>
<g>
<polygon points = "695.103, 258.661 660.937, 181.437 617.415, 153.310 580.498, 166.103 673.011, 264.527 "
fill = "none" stroke = "black" stroke-width="1"/>
</g>
<g>
<polygon points = "151.910, 499.104 121.402, 492.675 108.626, 499.582 101.182, 515.788 101.132, 515.980 104.134, 604.700 146.145, 590.322 153.998, 586.707 "
fill = "none" stroke = "black" stroke-width="1"/>
</g>
<g>
<polygon points = "226.034, 75.578 304.196, 20.052 307.109, 0.000 193.391, 0.000 "
fill = "none" stroke = "black" stroke-width="1"/>
</g>
<g>
<polygon points = "629.661, 66.822 617.415, 153.310 660.937, 181.437 689.354, 139.028 654.807, 75.328 "
fill = "none" stroke = "black" stroke-width="1"/>
</g>
<g>
<polygon points = "28.893, 874.320 123.916, 836.684 82.909, 768.163 58.164, 780.777 "
fill = "none" stroke = "black" stroke-width="1"/>
</g>
<g>
<polygon points = "83.719, 652.086 84.947, 650.262 88.960, 634.822 23.900, 566.501 0.000, 566.073 0.000, 643.562 "
fill = "none" stroke = "black" stroke-width="1"/>
</g>
<g>
<polygon points = "453.037, 963.213 453.348, 943.887 324.362, 920.097 313.656, 956.517 317.178, 973.561 "
fill = "none" stroke = "black" stroke-width="1"/>
</g>
<g>
<polygon points = "251.984, 567.904 299.389, 588.069 347.997, 541.491 321.924, 515.908 281.206, 496.748 278.311, 496.621 "
fill = "none" stroke = "black" stroke-width="1"/>
</g>
<g>
<polygon points = "670.203, 764.829 672.335, 807.398 681.106, 832.503 718.231, 845.271 729.199, 790.821 715.954, 720.787 715.559, 720.688 "
fill = "none" stroke = "black" stroke-width="1"/>
</g>
<g>
<polygon points = "104.134, 604.700 88.960, 634.822 84.947, 650.262 172.919, 677.357 187.269, 674.808 146.145, 590.322 "
fill = "none" stroke = "black" stroke-width="1"/>
</g>
<g>
<polygon points = "180.468, 211.394 152.664, 292.234 172.733, 301.449 248.054, 248.124 255.169, 236.515 237.484, 221.126 "
fill = "none" stroke = "black" stroke-width="1"/>
</g>
<g>
<polygon points = "601.138, 606.126 519.369, 597.757 467.649, 623.266 540.740, 661.677 594.067, 629.650 603.444, 608.758 "
fill = "none" stroke = "black" stroke-width="1"/>
</g>
<g>
<polygon points = "0.000, 65.804 74.438, 50.633 85.864, 38.609 93.972, 0.000 0.000, 0.000 "
fill = "none" stroke = "black" stroke-width="1"/>
</g>
<g>
<polygon points = "288.109, 253.424 276.981, 221.046 255.169, 236.515 248.054, 248.124 243.118, 349.789 250.239, 371.470 277.431, 362.204 "
fill = "none" stroke = "black" stroke-width="1"/>
</g>
<g>
<polygon points = "974.910, 514.619 941.376, 468.691 874.180, 484.438 862.252, 495.488 884.822, 530.362 908.728, 541.897 "
fill = "none" stroke = "black" stroke-width="1"/>
</g>
<g>
<polygon points = "958.816, 708.592 904.257, 671.067 883.645, 675.802 876.756, 708.293 884.111, 754.394 920.124, 766.034 "
fill = "none" stroke = "black" stroke-width="1"/>
</g>
<g>
<polygon points = "371.370, 275.806 287.887, 202.358 276.981, 221.046 288.109, 253.424 339.956, 311.393 383.431, 310.713 "
fill = "none" stroke = "black" stroke-width="1"/>
</g>
<g>
<polygon points = "415.247, 570.186 443.082, 624.573 467.649, 623.266 519.369, 597.757 479.795, 543.623 "
fill = "none" stroke = "black" stroke-width="1"/>
</g>
<g>
<polygon points = "670.593, 271.423 581.435, 264.849 576.944, 286.537 587.297, 308.749 625.583, 337.929 658.056, 333.064 "
fill = "none" stroke = "black" stroke-width="1"/>
</g>
<g>
<polygon points = "80.580, 309.000 81.678, 307.887 90.323, 269.213 89.404, 267.186 68.673, 242.552 0.000, 248.065 0.000, 300.163 "
fill = "none" stroke = "black" stroke-width="1"/>
</g>
<g>
<polygon points = "101.182, 515.788 108.626, 499.582 5.098, 409.460 0.000, 408.361 0.000, 479.668 "
fill = "none" stroke = "black" stroke-width="1"/>
</g>
<g>
<polygon points = "924.626, 570.847 921.583, 594.884 1000.000, 699.711 1000.000, 596.277 "
fill = "none" stroke = "black" stroke-width="1"/>
</g>
<g>
<polygon points = "513.755, 364.709 522.565, 339.424 483.489, 287.327 450.438, 266.576 435.178, 299.486 453.772, 353.636 "
fill = "none" stroke = "black" stroke-width="1"/>
</g>
<g>
<polygon points = "708.033, 154.959 757.058, 116.585 750.736, 87.146 663.597, 69.480 654.807, 75.328 689.354, 139.028 "
fill = "none" stroke = "black" stroke-width="1"/>
</g>
<g>
<polygon points = "778.519, 696.274 779.854, 641.217 776.324, 623.210 760.540, 622.170 723.957, 642.218 709.052, 685.275 715.559, 720.688 715.954, 720.787 "
fill = "none" stroke = "black" stroke-width="1"/>
</g>
<g>
<polygon points = "202.234, 857.021 209.080, 835.960 83.614, 763.194 82.909, 768.163 123.916, 836.684 149.264, 864.605 "
fill = "none" stroke = "black" stroke-width="1"/>
</g>
<g>
<polygon points = "225.508, 798.693 209.080, 835.960 202.234, 857.021 207.958, 861.187 268.416, 873.748 295.157, 828.905 261.160, 791.927 "
fill = "none" stroke = "black" stroke-width="1"/>
</g>
<g>
<polygon points = "542.936, 252.547 576.944, 286.537 581.435, 264.849 577.185, 165.031 557.783, 151.032 554.842, 151.782 519.332, 212.571 "
fill = "none" stroke = "black" stroke-width="1"/>
</g>
<g>
<polygon points = "788.547, 922.818 813.421, 931.443 847.104, 842.226 739.895, 864.310 745.369, 873.835 "
fill = "none" stroke = "black" stroke-width="1"/>
</g>
<g>
<polygon points = "443.082, 624.573 415.247, 570.186 406.476, 566.919 361.678, 678.325 377.295, 692.424 409.801, 672.002 416.680, 665.312 "
fill = "none" stroke = "black" stroke-width="1"/>
</g>
<g>
<polygon points = "383.431, 310.713 339.956, 311.393 323.892, 384.282 349.909, 420.001 362.245, 421.299 386.941, 358.255 383.770, 311.250 "
fill = "none" stroke = "black" stroke-width="1"/>
</g>
<g>
<polygon points = "797.992, 240.956 725.521, 275.519 739.389, 310.984 766.306, 308.954 860.593, 264.772 860.217, 261.864 "
fill = "none" stroke = "black" stroke-width="1"/>
</g>
<g>
<polygon points = "588.625, 793.187 532.509, 767.715 529.275, 770.775 513.910, 838.399 523.942, 861.581 557.457, 866.029 573.269, 849.049 "
fill = "none" stroke = "black" stroke-width="1"/>
</g>
<g>
<polygon points = "690.183, 385.394 673.198, 342.133 658.056, 333.064 625.583, 337.929 608.011, 416.457 617.771, 433.898 "
fill = "none" stroke = "black" stroke-width="1"/>
</g>
<g>
<polygon points = "804.156, 393.650 740.665, 318.613 724.986, 334.509 766.310, 442.494 802.367, 441.122 "
fill = "none" stroke = "black" stroke-width="1"/>
</g>
<g>
<polygon points = "458.600, 968.265 453.037, 963.213 317.178, 973.561 301.008, 1000.000 477.558, 1000.000 "
fill = "none" stroke = "black" stroke-width="1"/>
</g>
<g>
<polygon points = "311.433, 113.451 225.876, 86.220 215.777, 99.483 236.829, 133.538 290.321, 175.987 318.033, 155.979 319.497, 154.092 "
fill = "none" stroke = "black" stroke-width="1"/>
</g>
<g>
<polygon points = "690.183, 385.394 617.771, 433.898 620.503, 443.926 676.138, 472.959 726.509, 433.880 "
fill = "none" stroke = "black" stroke-width="1"/>
</g>
<g>
<polygon points = "673.494, 539.192 676.138, 472.959 620.503, 443.926 602.145, 510.673 616.364, 529.707 "
fill = "none" stroke = "black" stroke-width="1"/>
</g>
<g>
<polygon points = "971.441, 396.382 941.376, 468.691 974.910, 514.619 1000.000, 511.762 1000.000, 399.092 "
fill = "none" stroke = "black" stroke-width="1"/>
</g>
<g>
<polygon points = "431.264, 482.434 432.556, 482.875 517.666, 454.617 446.519, 381.308 426.604, 407.604 "
fill = "none" stroke = "black" stroke-width="1"/>
</g>
<g>
<polygon points = "205.724, 931.204 207.958, 861.187 202.234, 857.021 149.264, 864.605 133.589, 905.019 133.643, 937.035 "
fill = "none" stroke = "black" stroke-width="1"/>
</g>
<g>
<polygon points = "926.467, 836.285 906.135, 839.569 835.817, 951.043 846.481, 968.490 910.576, 914.294 931.720, 874.696 "
fill = "none" stroke = "black" stroke-width="1"/>
</g>
<g>
<polygon points = "467.649, 623.266 443.082, 624.573 416.680, 665.312 530.486, 694.241 540.740, 661.677 "
fill = "none" stroke = "black" stroke-width="1"/>
</g>
<g>
<polygon points = "557.457, 866.029 523.942, 861.581 456.008, 929.774 453.348, 943.887 453.037, 963.213 458.600, 968.265 567.769, 886.666 "
fill = "none" stroke = "black" stroke-width="1"/>
</g>
<g>
<polygon points = "130.640, 945.849 87.406, 945.234 38.860, 1000.000 179.253, 1000.000 "
fill = "none" stroke = "black" stroke-width="1"/>
</g>
<g>
<polygon points = "871.199, 61.861 875.989, 72.124 917.599, 120.759 988.783, 112.632 945.389, 49.365 "
fill = "none" stroke = "black" stroke-width="1"/>
</g>
<g>
<polygon points = "69.524, 703.628 83.719, 652.086 0.000, 643.562 0.000, 723.595 "
fill = "none" stroke = "black" stroke-width="1"/>
</g>
<g>
<polygon points = "327.019, 807.810 319.752, 821.820 319.957, 822.347 430.307, 871.845 434.598, 873.030 445.516, 836.753 434.584, 806.464 "
fill = "none" stroke = "black" stroke-width="1"/>
</g>
<g>
<polygon points = "383.939, 243.449 318.033, 155.979 290.321, 175.987 287.887, 202.358 371.370, 275.806 "
fill = "none" stroke = "black" stroke-width="1"/>
</g>
<g>
<polygon points = "647.282, 602.670 603.842, 608.827 661.394, 670.991 709.052, 685.275 723.957, 642.218 "
fill = "none" stroke = "black" stroke-width="1"/>
</g>
<g>
<polygon points = "164.097, 353.312 170.957, 337.250 172.733, 301.449 152.664, 292.234 90.323, 269.213 81.678, 307.887 95.263, 320.584 151.943, 363.640 "
fill = "none" stroke = "black" stroke-width="1"/>
</g>
<g>
<polygon points = "956.524, 790.075 920.124, 766.034 884.111, 754.394 884.063, 754.403 874.052, 773.023 868.151, 825.219 906.135, 839.569 926.467, 836.285 "
fill = "none" stroke = "black" stroke-width="1"/>
</g>
<g>
<polygon points = "213.711, 432.684 228.003, 433.501 236.421, 417.915 250.239, 371.470 243.118, 349.789 170.957, 337.250 164.097, 353.312 "
fill = "none" stroke = "black" stroke-width="1"/>
</g>
<g>
<polygon points = "493.044, 527.525 479.795, 543.623 519.369, 597.757 601.138, 606.126 589.791, 576.228 510.461, 528.198 "
fill = "none" stroke = "black" stroke-width="1"/>
</g>
<g>
<polygon points = "846.481, 968.490 835.817, 951.043 813.421, 931.443 788.547, 922.818 755.048, 992.019 756.808, 1000.000 847.951, 1000.000 "
fill = "none" stroke = "black" stroke-width="1"/>
</g>
<g>
<polygon points = "18.493, 400.726 5.098, 409.460 108.626, 499.582 121.402, 492.675 131.930, 468.689 129.408, 449.317 91.263, 427.732 "
fill = "none" stroke = "black" stroke-width="1"/>
</g>
<g>
<polygon points = "601.770, 44.657 557.783, 151.032 577.185, 165.031 580.498, 166.103 617.415, 153.310 629.661, 66.822 "
fill = "none" stroke = "black" stroke-width="1"/>
</g>
<g>
<polygon points = "339.956, 311.393 288.109, 253.424 277.431, 362.204 323.892, 384.282 "
fill = "none" stroke = "black" stroke-width="1"/>
</g>
<g>
<polygon points = "87.406, 945.234 130.640, 945.849 133.643, 937.035 133.589, 905.019 20.523, 887.916 0.000, 902.624 0.000, 909.941 "
fill = "none" stroke = "black" stroke-width="1"/>
</g>
<g>
<polygon points = "85.864, 38.609 165.570, 98.753 168.383, 98.355 156.285, 0.000 93.972, 0.000 "
fill = "none" stroke = "black" stroke-width="1"/>
</g>
<g>
<polygon points = "839.454, 126.753 909.464, 185.206 925.223, 178.691 917.599, 120.759 875.989, 72.124 "
fill = "none" stroke = "black" stroke-width="1"/>
</g>
<g>
<polygon points = "71.110, 181.085 68.673, 242.552 89.404, 267.186 135.520, 194.081 126.744, 151.438 114.745, 144.798 "
fill = "none" stroke = "black" stroke-width="1"/>
</g>
<g>
<polygon points = "717.074, 572.111 760.540, 622.170 776.324, 623.210 799.830, 607.214 808.725, 588.197 797.782, 530.710 795.108, 530.505 "
fill = "none" stroke = "black" stroke-width="1"/>
</g>
<g>
<polygon points = "725.521, 275.519 720.067, 268.805 695.103, 258.661 673.011, 264.527 670.593, 271.423 658.056, 333.064 673.198, 342.133 724.986, 334.509 740.665, 318.613 739.389, 310.984 "
fill = "none" stroke = "black" stroke-width="1"/>
</g>
<g>
<polygon points = "839.454, 126.753 827.225, 123.260 817.912, 158.863 818.110, 160.081 874.339, 233.966 886.786, 233.246 909.464, 185.206 "
fill = "none" stroke = "black" stroke-width="1"/>
</g>
<g>
<polygon points = "724.597, 187.550 786.688, 190.232 818.110, 160.081 817.912, 158.863 757.058, 116.585 708.033, 154.959 "
fill = "none" stroke = "black" stroke-width="1"/>
</g>
<g>
<polygon points = "406.476, 566.919 415.247, 570.186 479.795, 543.623 493.044, 527.525 432.556, 482.875 431.264, 482.434 422.647, 485.051 389.810, 549.067 "
fill = "none" stroke = "black" stroke-width="1"/>
</g>
<g>
<polygon points = "884.063, 754.403 806.585, 712.973 758.709, 784.610 849.408, 779.262 874.052, 773.023 "
fill = "none" stroke = "black" stroke-width="1"/>
</g>
<g>
<polygon points = "0.000, 65.804 0.000, 143.630 68.509, 114.553 74.438, 50.633 "
fill = "none" stroke = "black" stroke-width="1"/>
</g>
<g>
<polygon points = "618.603, 973.868 634.927, 956.952 640.544, 872.899 574.496, 889.504 567.590, 931.124 "
fill = "none" stroke = "black" stroke-width="1"/>
</g>
<g>
<polygon points = "85.446, 740.737 209.845, 785.948 188.911, 729.835 166.418, 713.944 78.564, 717.366 "
fill = "none" stroke = "black" stroke-width="1"/>
</g>
<g>
<polygon points = "988.783, 112.632 917.599, 120.759 925.223, 178.691 933.250, 181.779 1000.000, 177.584 1000.000, 114.718 "
fill = "none" stroke = "black" stroke-width="1"/>
</g>
<g>
<polygon points = "818.110, 160.081 786.688, 190.232 797.992, 240.956 860.217, 261.864 874.339, 233.966 "
fill = "none" stroke = "black" stroke-width="1"/>
</g>
<g>
<polygon points = "243.118, 349.789 248.054, 248.124 172.733, 301.449 170.957, 337.250 "
fill = "none" stroke = "black" stroke-width="1"/>
</g>
<g>
<polygon points = "294.282, 710.443 314.927, 679.417 314.448, 669.667 306.577, 647.307 227.080, 630.354 215.704, 673.110 "
fill = "none" stroke = "black" stroke-width="1"/>
</g>
<g>
<polygon points = "755.048, 992.019 788.547, 922.818 745.369, 873.835 706.916, 959.220 "
fill = "none" stroke = "black" stroke-width="1"/>
</g>
<g>
<polygon points = "899.825, 375.945 871.760, 362.553 804.156, 393.650 802.367, 441.122 825.005, 464.070 "
fill = "none" stroke = "black" stroke-width="1"/>
</g>
<g>
<polygon points = "755.048, 992.019 706.916, 959.220 641.859, 955.423 634.927, 956.952 618.603, 973.868 605.245, 1000.000 756.808, 1000.000 "
fill = "none" stroke = "black" stroke-width="1"/>
</g>
<g>
<polygon points = "5.098, 409.460 18.493, 400.726 80.580, 309.000 0.000, 300.163 0.000, 408.361 "
fill = "none" stroke = "black" stroke-width="1"/>
</g>
<g>
<polygon points = "958.816, 708.592 920.124, 766.034 956.524, 790.075 1000.000, 787.652 1000.000, 704.078 "
fill = "none" stroke = "black" stroke-width="1"/>
</g>
<g>
<polygon points = "956.524, 790.075 926.467, 836.285 931.720, 874.696 960.475, 873.838 1000.000, 851.904 1000.000, 787.652 "
fill = "none" stroke = "black" stroke-width="1"/>
</g>
<g>
<polygon points = "921.583, 594.884 904.257, 671.067 958.816, 708.592 1000.000, 704.078 1000.000, 699.711 "
fill = "none" stroke = "black" stroke-width="1"/>
</g>
<g>
<polygon points = "83.614, 763.194 209.080, 835.960 225.508, 798.693 209.845, 785.948 85.446, 740.737 "
fill = "none" stroke = "black" stroke-width="1"/>
</g>
<g>
<polygon points = "324.362, 920.097 453.348, 943.887 456.008, 929.774 434.598, 873.030 430.307, 871.845 324.619, 915.061 "
fill = "none" stroke = "black" stroke-width="1"/>
</g>
<g>
<polygon points = "304.196, 20.052 324.164, 86.662 393.944, 69.709 351.138, 0.000 307.109, 0.000 "
fill = "none" stroke = "black" stroke-width="1"/>
</g>
<g>
<polygon points = "806.585, 712.973 884.063, 754.403 884.111, 754.394 876.756, 708.293 779.854, 641.217 778.519, 696.274 "
fill = "none" stroke = "black" stroke-width="1"/>
</g>
<g>
<polygon points = "225.492, 576.754 192.003, 495.358 151.910, 499.104 153.998, 586.707 216.041, 582.646 "
fill = "none" stroke = "black" stroke-width="1"/>
</g>
<g>
<polygon points = "876.756, 708.293 883.645, 675.802 833.585, 614.679 799.830, 607.214 776.324, 623.210 779.854, 641.217 "
fill = "none" stroke = "black" stroke-width="1"/>
</g>
<g>
<polygon points = "717.074, 572.111 685.138, 554.656 647.282, 602.670 723.957, 642.218 760.540, 622.170 "
fill = "none" stroke = "black" stroke-width="1"/>
</g>
<g>
<polygon points = "340.498, 155.911 319.497, 154.092 318.033, 155.979 383.939, 243.449 448.272, 218.860 449.232, 216.187 447.029, 206.322 "
fill = "none" stroke = "black" stroke-width="1"/>
</g>
<g>
<polygon points = "663.597, 69.480 750.736, 87.146 782.837, 55.635 686.840, 10.698 "
fill = "none" stroke = "black" stroke-width="1"/>
</g>
<g>
<polygon points = "475.485, 8.655 490.856, 26.490 548.474, 56.122 599.256, 36.832 599.263, 0.000 477.890, 0.000 "
fill = "none" stroke = "black" stroke-width="1"/>
</g>
<g>
<polygon points = "188.911, 729.835 288.757, 723.112 293.751, 716.522 294.282, 710.443 215.704, 673.110 187.269, 674.808 172.919, 677.357 166.418, 713.944 "
fill = "none" stroke = "black" stroke-width="1"/>
</g>
<g>
<polygon points = "599.256, 36.832 548.474, 56.122 511.273, 141.573 554.842, 151.782 557.783, 151.032 601.770, 44.657 "
fill = "none" stroke = "black" stroke-width="1"/>
</g>
<g>
<polygon points = "225.492, 576.754 251.984, 567.904 278.311, 496.621 243.569, 480.338 192.003, 495.358 "
fill = "none" stroke = "black" stroke-width="1"/>
</g>
<g>
<polygon points = "786.688, 190.232 724.597, 187.550 720.067, 268.805 725.521, 275.519 797.992, 240.956 "
fill = "none" stroke = "black" stroke-width="1"/>
</g>
<g>
<polygon points = "324.164, 86.662 304.196, 20.052 226.034, 75.578 225.876, 86.220 311.433, 113.451 "
fill = "none" stroke = "black" stroke-width="1"/>
</g>
<g>
<polygon points = "135.520, 194.081 89.404, 267.186 90.323, 269.213 152.664, 292.234 180.468, 211.394 "
fill = "none" stroke = "black" stroke-width="1"/>
</g>
<g>
<polygon points = "806.585, 712.973 778.519, 696.274 715.954, 720.787 729.199, 790.821 758.709, 784.610 "
fill = "none" stroke = "black" stroke-width="1"/>
</g>
<g>
<polygon points = "233.422, 964.177 205.724, 931.204 133.643, 937.035 130.640, 945.849 179.253, 1000.000 230.225, 1000.000 "
fill = "none" stroke = "black" stroke-width="1"/>
</g>
<g>
<polygon points = "874.180, 484.438 927.339, 379.471 899.825, 375.945 825.005, 464.070 835.077, 480.100 862.252, 495.488 "
fill = "none" stroke = "black" stroke-width="1"/>
</g>
<g>
<polygon points = "806.284, 49.754 827.225, 123.260 839.454, 126.753 875.989, 72.124 871.199, 61.861 836.149, 0.000 829.125, 0.000 "
fill = "none" stroke = "black" stroke-width="1"/>
</g>
<g>
<polygon points = "493.044, 527.525 510.461, 528.198 549.726, 487.548 536.044, 454.533 517.666, 454.617 432.556, 482.875 "
fill = "none" stroke = "black" stroke-width="1"/>
</g>
<g>
<polygon points = "126.744, 151.438 135.520, 194.081 180.468, 211.394 237.484, 221.126 206.003, 153.096 "
fill = "none" stroke = "black" stroke-width="1"/>
</g>
<g>
<polygon points = "921.583, 594.884 924.626, 570.847 923.850, 570.264 833.585, 614.679 883.645, 675.802 904.257, 671.067 "
fill = "none" stroke = "black" stroke-width="1"/>
</g>
<g>
<polygon points = "58.164, 780.777 82.909, 768.163 83.614, 763.194 85.446, 740.737 78.564, 717.366 69.524, 703.628 0.000, 723.595 0.000, 765.602 "
fill = "none" stroke = "black" stroke-width="1"/>
</g>
<g>
<polygon points = "766.306, 308.954 871.169, 358.916 870.804, 293.617 860.593, 264.772 "
fill = "none" stroke = "black" stroke-width="1"/>
</g>
<g>
<polygon points = "476.762, 120.800 490.856, 26.490 475.485, 8.655 402.963, 70.380 403.802, 72.136 "
fill = "none" stroke = "black" stroke-width="1"/>
</g>
<g>
<polygon points = "403.802, 72.136 402.963, 70.380 393.944, 69.709 324.164, 86.662 311.433, 113.451 319.497, 154.092 340.498, 155.911 377.884, 133.891 "
fill = "none" stroke = "black" stroke-width="1"/>
</g>
<g>
<polygon points = "647.437, 753.467 670.203, 764.829 715.559, 720.688 709.052, 685.275 661.394, 670.991 629.812, 734.088 "
fill = "none" stroke = "black" stroke-width="1"/>
</g>
<g>
<polygon points = "450.438, 266.576 448.272, 218.860 383.939, 243.449 371.370, 275.806 383.431, 310.713 383.770, 311.250 435.178, 299.486 "
fill = "none" stroke = "black" stroke-width="1"/>
</g>
<g>
<polygon points = "616.364, 529.707 589.791, 576.228 601.138, 606.126 603.444, 608.758 603.842, 608.827 647.282, 602.670 685.138, 554.656 679.336, 542.701 673.494, 539.192 "
fill = "none" stroke = "black" stroke-width="1"/>
</g>
<g>
<polygon points = "268.416, 873.748 275.858, 913.963 313.656, 956.517 324.362, 920.097 324.619, 915.061 319.957, 822.347 319.752, 821.820 295.157, 828.905 "
fill = "none" stroke = "black" stroke-width="1"/>
</g>
<g>
<polygon points = "448.992, 742.753 432.699, 773.706 439.845, 782.394 529.275, 770.775 532.509, 767.715 550.524, 737.126 532.327, 709.989 "
fill = "none" stroke = "black" stroke-width="1"/>
</g>
<g>
<polygon points = "833.585, 614.679 923.850, 570.264 908.728, 541.897 884.822, 530.362 808.725, 588.197 799.830, 607.214 "
fill = "none" stroke = "black" stroke-width="1"/>
</g>
<g>
<polygon points = "720.067, 268.805 724.597, 187.550 708.033, 154.959 689.354, 139.028 660.937, 181.437 695.103, 258.661 "
fill = "none" stroke = "black" stroke-width="1"/>
</g>
<g>
<polygon points = "20.523, 887.916 28.893, 874.320 58.164, 780.777 0.000, 765.602 0.000, 902.624 "
fill = "none" stroke = "black" stroke-width="1"/>
</g>
<g>
<polygon points = "640.544, 872.899 681.106, 832.503 672.335, 807.398 573.269, 849.049 557.457, 866.029 567.769, 886.666 574.496, 889.504 "
fill = "none" stroke = "black" stroke-width="1"/>
</g>
<g>
<polygon points = "432.699, 773.706 364.978, 744.034 336.907, 769.838 327.019, 807.810 434.584, 806.464 439.845, 782.394 "
fill = "none" stroke = "black" stroke-width="1"/>
</g>
<g>
<polygon points = "517.666, 454.617 536.044, 454.533 539.399, 445.743 513.755, 364.709 453.772, 353.636 446.519, 381.308 "
fill = "none" stroke = "black" stroke-width="1"/>
</g>
<g>
<polygon points = "679.336, 542.701 685.138, 554.656 717.074, 572.111 795.108, 530.505 744.960, 485.221 "
fill = "none" stroke = "black" stroke-width="1"/>
</g>
<g>
<polygon points = "18.493, 400.726 91.263, 427.732 95.263, 320.584 81.678, 307.887 80.580, 309.000 "
fill = "none" stroke = "black" stroke-width="1"/>
</g>
<g>
<polygon points = "640.544, 872.899 634.927, 956.952 641.859, 955.423 723.250, 850.614 718.231, 845.271 681.106, 832.503 "
fill = "none" stroke = "black" stroke-width="1"/>
</g>
<g>
<polygon points = "131.930, 468.689 213.711, 432.684 164.097, 353.312 151.943, 363.640 129.408, 449.317 "
fill = "none" stroke = "black" stroke-width="1"/>
</g>
<g>
<polygon points = "550.524, 737.126 532.509, 767.715 588.625, 793.187 647.437, 753.467 629.812, 734.088 598.879, 717.314 "
fill = "none" stroke = "black" stroke-width="1"/>
</g>
<g>
<polygon points = "377.295, 692.424 364.978, 744.034 432.699, 773.706 448.992, 742.753 409.801, 672.002 "
fill = "none" stroke = "black" stroke-width="1"/>
</g>
<g>
<polygon points = "971.441, 396.382 930.626, 378.774 927.339, 379.471 874.180, 484.438 941.376, 468.691 "
fill = "none" stroke = "black" stroke-width="1"/>
</g>
<g>
<polygon points = "560.398, 323.684 587.297, 308.749 576.944, 286.537 542.936, 252.547 483.489, 287.327 522.565, 339.424 "
fill = "none" stroke = "black" stroke-width="1"/>
</g>
<g>
<polygon points = "548.474, 56.122 490.856, 26.490 476.762, 120.800 494.997, 144.144 511.273, 141.573 "
fill = "none" stroke = "black" stroke-width="1"/>
</g>
<g>
<polygon points = "599.256, 36.832 601.770, 44.657 629.661, 66.822 654.807, 75.328 663.597, 69.480 686.840, 10.698 684.518, 0.000 599.263, 0.000 "
fill = "none" stroke = "black" stroke-width="1"/>
</g>
<g>
<polygon points = "835.817, 951.043 906.135, 839.569 868.151, 825.219 847.104, 842.226 813.421, 931.443 "
fill = "none" stroke = "black" stroke-width="1"/>
</g>
<g>
<polygon points = "625.583, 337.929 587.297, 308.749 560.398, 323.684 578.228, 427.196 608.011, 416.457 "
fill = "none" stroke = "black" stroke-width="1"/>
</g>
<g>
<polygon points = "899.825, 375.945 927.339, 379.471 930.626, 378.774 954.806, 320.311 870.804, 293.617 871.169, 358.916 871.760, 362.553 "
fill = "none" stroke = "black" stroke-width="1"/>
</g>
<g>
<polygon points = "974.910, 514.619 908.728, 541.897 923.850, 570.264 924.626, 570.847 1000.000, 596.277 1000.000, 511.762 "
fill = "none" stroke = "black" stroke-width="1"/>
</g>
<g>
<polygon points = "476.762, 120.800 403.802, 72.136 377.884, 133.891 479.802, 157.211 494.997, 144.144 "
fill = "none" stroke = "black" stroke-width="1"/>
</g>
<g>
<polygon points = "87.406, 945.234 0.000, 909.941 0.000, 1000.000 38.860, 1000.000 "
fill = "none" stroke = "black" stroke-width="1"/>
</g>
<g>
<polygon points = "672.335, 807.398 670.203, 764.829 647.437, 753.467 588.625, 793.187 573.269, 849.049 "
fill = "none" stroke = "black" stroke-width="1"/>
</g>
<g>
<polygon points = "560.398, 323.684 522.565, 339.424 513.755, 364.709 539.399, 445.743 578.228, 427.196 "
fill = "none" stroke = "black" stroke-width="1"/>
</g>
<g>
<polygon points = "188.911, 729.835 209.845, 785.948 225.508, 798.693 261.160, 791.927 288.757, 723.112 "
fill = "none" stroke = "black" stroke-width="1"/>
</g>
<g>
<polygon points = "448.272, 218.860 450.438, 266.576 483.489, 287.327 542.936, 252.547 519.332, 212.571 449.232, 216.187 "
fill = "none" stroke = "black" stroke-width="1"/>
</g>
<g>
<polygon points = "362.245, 421.299 387.639, 459.587 422.647, 485.051 431.264, 482.434 426.604, 407.604 386.941, 358.255 "
fill = "none" stroke = "black" stroke-width="1"/>
</g>
<g>
<circle cx = "85.032" cy = "108.389" r = "2" fill="black"/>
<circle cx = "189.690" cy = "601.992" r = "2" fill="black"/>
<circle cx = "743.512" cy = "439.610" r = "2" fill="black"/>
<circle cx = "809.567" cy = "488.287" r = "2" fill="black"/>
<circle cx = "995.085" cy = "33.389" r = "2" fill="black"/>
<circle cx = "426.051" cy = "347.001" r = "2" fill="black"/>
<circle cx = "961.533" cy = "142.013" r = "2" fill="black"/>
<circle cx = "294.026" cy = "585.355" r = "2" fill="black"/>
<circle cx = "514.893" cy = "210.215" r = "2" fill="black"/>
<circle cx = "544.273" cy = "906.370" r = "2" fill="black"/>
<circle cx = "432.260" cy = "155.073" r = "2" fill="black"/>
<circle cx = "772.846" cy = "808.141" r = "2" fill="black"/>
<circle cx = "780.367" cy = "818.657" r = "2" fill="black"/>
<circle cx = "579.141" cy = "685.869" r = "2" fill="black"/>
<circle cx = "411.985" cy = "7.695" r = "2" fill="black"/>
<circle cx = "163.922" cy = "665.152" r = "2" fill="black"/>
<circle cx = "76.218" cy = "825.476" r = "2" fill="black"/>
<circle cx = "37.300" cy = "532.585" r = "2" fill="black"/>
<circle cx = "674.113" cy = "933.297" r = "2" fill="black"/>
<circle cx = "389.782" cy = "834.601" r = "2" fill="black"/>
<circle cx = "990.804" cy = "129.361" r = "2" fill="black"/>
<circle cx = "672.653" cy = "412.294" r = "2" fill="black"/>
<circle cx = "255.014" cy = "406.955" r = "2" fill="black"/>
<circle cx = "271.720" cy = "729.519" r = "2" fill="black"/>
<circle cx = "95.930" cy = "367.444" r = "2" fill="black"/>
<circle cx = "151.273" cy = "51.138" r = "2" fill="black"/>
<circle cx = "42.604" cy = "264.911" r = "2" fill="black"/>
<circle cx = "465.497" cy = "777.460" r = "2" fill="black"/>
<circle cx = "571.484" cy = "395.431" r = "2" fill="black"/>
<circle cx = "698.002" cy = "335.314" r = "2" fill="black"/>
<circle cx = "173.652" cy = "248.505" r = "2" fill="black"/>
<circle cx = "824.917" cy = "246.904" r = "2" fill="black"/>
<circle cx = "319.049" cy = "467.449" r = "2" fill="black"/>
<circle cx = "147.554" cy = "207.372" r = "2" fill="black"/>
<circle cx = "912.531" cy = "205.619" r = "2" fill="black"/>
<circle cx = "9.408" cy = "489.947" r = "2" fill="black"/>
<circle cx = "295.594" cy = "440.081" r = "2" fill="black"/>
<circle cx = "504.173" cy = "689.984" r = "2" fill="black"/>
<circle cx = "982.579" cy = "35.545" r = "2" fill="black"/>
<circle cx = "448.564" cy = "696.486" r = "2" fill="black"/>
<circle cx = "56.208" cy = "198.081" r = "2" fill="black"/>
<circle cx = "983.813" cy = "948.937" r = "2" fill="black"/>
<circle cx = "239.803" cy = "895.301" r = "2" fill="black"/>
<circle cx = "534.797" cy = "478.593" r = "2" fill="black"/>
<circle cx = "329.979" cy = "682.362" r = "2" fill="black"/>
<circle cx = "977.858" cy = "264.913" r = "2" fill="black"/>
<circle cx = "953.617" cy = "950.532" r = "2" fill="black"/>
<circle cx = "572.538" cy = "939.155" r = "2" fill="black"/>
<circle cx = "811.628" cy = "20.814" r = "2" fill="black"/>
<circle cx = "225.825" cy = "593.631" r = "2" fill="black"/>
<circle cx = "619.046" cy = "245.444" r = "2" fill="black"/>
<circle cx = "915.988" cy = "963.508" r = "2" fill="black"/>
<circle cx = "830.576" cy = "96.357" r = "2" fill="black"/>
<circle cx = "175.992" cy = "433.217" r = "2" fill="black"/>
<circle cx = "328.182" cy = "605.431" r = "2" fill="black"/>
<circle cx = "464.552" cy = "816.732" r = "2" fill="black"/>
<circle cx = "257.500" cy = "389.451" r = "2" fill="black"/>
<circle cx = "196.504" cy = "858.707" r = "2" fill="black"/>
<circle cx = "669.344" cy = "198.167" r = "2" fill="black"/>
<circle cx = "155.896" cy = "528.572" r = "2" fill="black"/>
<circle cx = "255.728" cy = "6.022" r = "2" fill="black"/>
<circle cx = "698.761" cy = "152.649" r = "2" fill="black"/>
<circle cx = "69.381" cy = "808.214" r = "2" fill="black"/>
<circle cx = "8.147" cy = "560.347" r = "2" fill="black"/>
<circle cx = "389.613" cy = "864.343" r = "2" fill="black"/>
<circle cx = "249.231" cy = "538.608" r = "2" fill="black"/>
<circle cx = "698.389" cy = "793.143" r = "2" fill="black"/>
<circle cx = "182.262" cy = "605.607" r = "2" fill="black"/>
<circle cx = "142.462" cy = "284.348" r = "2" fill="black"/>
<circle cx = "473.120" cy = "638.280" r = "2" fill="black"/>
<circle cx = "0.310" cy = "27.891" r = "2" fill="black"/>
<circle cx = "242.597" cy = "345.720" r = "2" fill="black"/>
<circle cx = "940.200" cy = "403.743" r = "2" fill="black"/>
<circle cx = "903.858" cy = "668.468" r = "2" fill="black"/>
<circle cx = "304.043" cy = "324.602" r = "2" fill="black"/>
<circle cx = "449.785" cy = "590.968" r = "2" fill="black"/>
<circle cx = "618.305" cy = "255.495" r = "2" fill="black"/>
<circle cx = "47.345" cy = "323.963" r = "2" fill="black"/>
<circle cx = "18.198" cy = "465.325" r = "2" fill="black"/>
<circle cx = "938.174" cy = "621.956" r = "2" fill="black"/>
<circle cx = "492.311" cy = "324.249" r = "2" fill="black"/>
<circle cx = "784.188" cy = "106.318" r = "2" fill="black"/>
<circle cx = "727.119" cy = "678.486" r = "2" fill="black"/>
<circle cx = "145.237" cy = "762.817" r = "2" fill="black"/>
<circle cx = "211.923" cy = "784.497" r = "2" fill="black"/>
<circle cx = "578.177" cy = "247.184" r = "2" fill="black"/>
<circle cx = "790.235" cy = "866.562" r = "2" fill="black"/>
<circle cx = "380.455" cy = "626.450" r = "2" fill="black"/>
<circle cx = "304.522" cy = "355.201" r = "2" fill="black"/>
<circle cx = "822.678" cy = "217.212" r = "2" fill="black"/>
<circle cx = "524.381" cy = "790.840" r = "2" fill="black"/>
<circle cx = "634.027" cy = "360.433" r = "2" fill="black"/>
<circle cx = "738.946" cy = "319.646" r = "2" fill="black"/>
<circle cx = "399.406" cy = "992.914" r = "2" fill="black"/>
<circle cx = "262.852" cy = "136.099" r = "2" fill="black"/>
<circle cx = "644.201" cy = "375.622" r = "2" fill="black"/>
<circle cx = "626.034" cy = "410.433" r = "2" fill="black"/>
<circle cx = "966.505" cy = "384.536" r = "2" fill="black"/>
<circle cx = "468.280" cy = "378.983" r = "2" fill="black"/>
<circle cx = "158.794" cy = "857.504" r = "2" fill="black"/>
<circle cx = "865.010" cy = "903.219" r = "2" fill="black"/>
<circle cx = "454.215" cy = "674.252" r = "2" fill="black"/>
<circle cx = "514.359" cy = "866.350" r = "2" fill="black"/>
<circle cx = "69.747" cy = "970.467" r = "2" fill="black"/>
<circle cx = "983.548" cy = "41.301" r = "2" fill="black"/>
<circle cx = "2.016" cy = "620.560" r = "2" fill="black"/>
<circle cx = "405.739" cy = "799.030" r = "2" fill="black"/>
<circle cx = "356.173" cy = "265.350" r = "2" fill="black"/>
<circle cx = "625.217" cy = "643.212" r = "2" fill="black"/>
<circle cx = "117.113" cy = "339.559" r = "2" fill="black"/>
<circle cx = "852.671" cy = "826.831" r = "2" fill="black"/>
<circle cx = "179.815" cy = "366.339" r = "2" fill="black"/>
<circle cx = "480.240" cy = "568.704" r = "2" fill="black"/>
<circle cx = "753.998" cy = "971.065" r = "2" fill="black"/>
<circle cx = "82.045" cy = "391.981" r = "2" fill="black"/>
<circle cx = "651.240" cy = "145.920" r = "2" fill="black"/>
<circle cx = "276.690" cy = "349.067" r = "2" fill="black"/>
<circle cx = "71.351" cy = "857.653" r = "2" fill="black"/>
<circle cx = "125.875" cy = "54.262" r = "2" fill="black"/>
<circle cx = "936.528" cy = "81.530" r = "2" fill="black"/>
<circle cx = "114.143" cy = "267.747" r = "2" fill="black"/>
<circle cx = "738.761" cy = "501.767" r = "2" fill="black"/>
<circle cx = "688.348" cy = "269.741" r = "2" fill="black"/>
<circle cx = "907.376" cy = "116.446" r = "2" fill="black"/>
<circle cx = "805.097" cy = "133.031" r = "2" fill="black"/>
<circle cx = "420.333" cy = "519.402" r = "2" fill="black"/>
<circle cx = "771.371" cy = "783.122" r = "2" fill="black"/>
<circle cx = "15.399" cy = "101.929" r = "2" fill="black"/>
<circle cx = "593.205" cy = "914.489" r = "2" fill="black"/>
<circle cx = "165.678" cy = "710.234" r = "2" fill="black"/>
<circle cx = "987.377" cy = "74.838" r = "2" fill="black"/>
<circle cx = "839.067" cy = "168.432" r = "2" fill="black"/>
<circle cx = "183.894" cy = "342.870" r = "2" fill="black"/>
<circle cx = "222.198" cy = "610.641" r = "2" fill="black"/>
<circle cx = "700.861" cy = "945.343" r = "2" fill="black"/>
<circle cx = "860.483" cy = "324.224" r = "2" fill="black"/>
<circle cx = "670.838" cy = "989.403" r = "2" fill="black"/>
<circle cx = "45.955" cy = "336.632" r = "2" fill="black"/>
<circle cx = "940.818" cy = "693.364" r = "2" fill="black"/>
<circle cx = "951.851" cy = "891.342" r = "2" fill="black"/>
<circle cx = "933.384" cy = "625.538" r = "2" fill="black"/>
<circle cx = "148.801" cy = "756.672" r = "2" fill="black"/>
<circle cx = "393.446" cy = "843.561" r = "2" fill="black"/>
<circle cx = "384.292" cy = "24.700" r = "2" fill="black"/>
<circle cx = "826.041" cy = "680.884" r = "2" fill="black"/>
<circle cx = "184.839" cy = "527.882" r = "2" fill="black"/>
<circle cx = "843.494" cy = "655.671" r = "2" fill="black"/>
<circle cx = "665.252" cy = "565.593" r = "2" fill="black"/>
<circle cx = "393.320" cy = "237.361" r = "2" fill="black"/>
<circle cx = "793.802" cy = "58.895" r = "2" fill="black"/>
<circle cx = "516.577" cy = "36.768" r = "2" fill="black"/>
<circle cx = "193.779" cy = "670.457" r = "2" fill="black"/>
<circle cx = "540.672" cy = "100.199" r = "2" fill="black"/>
<circle cx = "201.562" cy = "521.002" r = "2" fill="black"/>
<circle cx = "803.223" cy = "176.420" r = "2" fill="black"/>
<circle cx = "289.239" cy = "53.194" r = "2" fill="black"/>
<circle cx = "138.060" cy = "282.834" r = "2" fill="black"/>
<circle cx = "766.961" cy = "780.175" r = "2" fill="black"/>
<circle cx = "161.285" cy = "888.293" r = "2" fill="black"/>
<circle cx = "888.836" cy = "348.296" r = "2" fill="black"/>
<circle cx = "920.424" cy = "70.760" r = "2" fill="black"/>
<circle cx = "485.562" cy = "431.036" r = "2" fill="black"/>
<circle cx = "146.430" cy = "261.103" r = "2" fill="black"/>
<circle cx = "891.826" cy = "616.087" r = "2" fill="black"/>
<circle cx = "38.523" cy = "747.677" r = "2" fill="black"/>
<circle cx = "830.802" cy = "234.551" r = "2" fill="black"/>
<circle cx = "470.517" cy = "76.465" r = "2" fill="black"/>
<circle cx = "404.527" cy = "107.985" r = "2" fill="black"/>
<circle cx = "608.089" cy = "700.357" r = "2" fill="black"/>
<circle cx = "412.360" cy = "287.177" r = "2" fill="black"/>
<circle cx = "607.795" cy = "520.291" r = "2" fill="black"/>
<circle cx = "303.242" cy = "838.953" r = "2" fill="black"/>
<circle cx = "458.142" cy = "720.850" r = "2" fill="black"/>
<circle cx = "864.520" cy = "560.592" r = "2" fill="black"/>
<circle cx = "727.976" cy = "172.225" r = "2" fill="black"/>
<circle cx = "26.251" cy = "794.718" r = "2" fill="black"/>
<circle cx = "573.655" cy = "836.722" r = "2" fill="black"/>
<circle cx = "405.304" cy = "764.305" r = "2" fill="black"/>
<circle cx = "485.246" cy = "362.517" r = "2" fill="black"/>
<circle cx = "719.688" cy = "465.993" r = "2" fill="black"/>
<circle cx = "91.216" cy = "367.268" r = "2" fill="black"/>
<circle cx = "655.232" cy = "918.635" r = "2" fill="black"/>
<circle cx = "153.727" cy = "382.646" r = "2" fill="black"/>
<circle cx = "535.478" cy = "766.393" r = "2" fill="black"/>
<circle cx = "430.678" cy = "706.393" r = "2" fill="black"/>
<circle cx = "932.374" cy = "370.345" r = "2" fill="black"/>
<circle cx = "527.628" cy = "297.759" r = "2" fill="black"/>
<circle cx = "494.331" cy = "80.024" r = "2" fill="black"/>
<circle cx = "737.948" cy = "36.810" r = "2" fill="black"/>
<circle cx = "831.739" cy = "882.231" r = "2" fill="black"/>
<circle cx = "552.269" cy = "342.139" r = "2" fill="black"/>
<circle cx = "903.466" cy = "234.145" r = "2" fill="black"/>
<circle cx = "979.569" cy = "499.262" r = "2" fill="black"/>
<circle cx = "439.660" cy = "122.730" r = "2" fill="black"/>
<circle cx = "37.382" cy = "941.777" r = "2" fill="black"/>
<circle cx = "558.282" cy = "800.159" r = "2" fill="black"/>
<circle cx = "546.504" cy = "343.132" r = "2" fill="black"/>
<circle cx = "195.703" cy = "699.033" r = "2" fill="black"/>
<circle cx = "518.615" cy = "282.353" r = "2" fill="black"/>
<circle cx = "379.368" cy = "384.521" r = "2" fill="black"/>
</g>
</svg>
